<?xml version="1.0" encoding="UTF-8"?>
<svg id="Capa_2" data-name="Capa 2" xmlns="http://www.w3.org/2000/svg" viewBox="0 0 65.46 144.17">
  <defs>
    <style>
      .cls-1 {
        fill: #12100b;
        stroke: #fff;
        stroke-miterlimit: 10;
        stroke-width: 2px;
      }
    </style>
  </defs>
  <g id="Capa_1-2" data-name="Capa 1">
    <path class="cls-1" d="m55.87,125.77v-.9c2.67-.79,4.6-3.35,4.32-6.33-.3-3.14-3.1-5.45-6.25-5.45-.83,0-1.54-.57-1.72-1.38l-1.21-5.48c-.63-2.84-1.44-5.62-2.45-8.35-2.86-7.66-8.91-7.17-4.12-26.4.32-1.29,1.14-2.39,2.3-3.03,1.74-.96,3.9-2.79,1.64-5.31-.95-1.06-1.47-2.42-1.59-3.84-.05-.66-.37-1.31-1.26-1.71-2.12-.95-3.21-3.35-2.81-5.63.6-3.39,2.38-8.05,7.18-12.89,0,0-.04-.02-.1-.06v-5.46h0v-7.98c-.83.9-1.78,1.69-2.78,2.4-.7-5.15-3.3-11.91-10.29-19.77.26-.65.41-1.37.41-2.13,0-2.8-1.98-5.07-4.42-5.07s-4.42,2.27-4.42,5.07c0,.76.15,1.48.41,2.13-6.99,7.86-9.59,14.62-10.29,19.77-.99-.72-1.94-1.5-2.78-2.4v7.97h0v5.47c-.06.04-.1.06-.1.06,4.8,4.83,6.58,9.5,7.18,12.89.4,2.29-.69,4.68-2.81,5.63-.89.4-1.21,1.05-1.26,1.71-.12,1.42-.64,2.78-1.59,3.84-2.26,2.52-.1,4.36,1.64,5.31,1.16.64,1.98,1.74,2.3,3.03,4.79,19.24-1.26,18.74-4.12,26.4-1.02,2.72-1.83,5.51-2.45,8.35l-1.21,5.48c-.18.81-.89,1.38-1.72,1.38-3.15,0-5.95,2.31-6.25,5.45-.28,2.97,1.65,5.54,4.32,6.33v.9c-4.95.06-8.94,4.31-8.57,9.35.34,4.6,4.39,8.04,9,8.04h45.42c4.61,0,8.65-3.45,9-8.04.38-5.04-3.61-9.29-8.57-9.35Z"/>
  </g>
</svg>