<svg xmlns="http://www.w3.org/2000/svg" viewBox="0 0 368.23 700.83"><defs><style>.cls-1,.cls-2{fill:#1d1d1b;}.cls-1,.cls-10,.cls-2,.cls-3,.cls-4,.cls-5,.cls-6,.cls-7,.cls-8,.cls-9{stroke:#fff;stroke-miterlimit:10;}.cls-1,.cls-10,.cls-3,.cls-4,.cls-5,.cls-6,.cls-9{stroke-width:2px;}.cls-3{fill:#4d4d4c;}.cls-4{fill:#6a6461;}.cls-5{fill:#b4acaa;}.cls-6{fill:#898e91;}.cls-7,.cls-9{fill:#565656;}.cls-7{stroke-width:0.25px;}.cls-8{fill:#3e3935;}.cls-10{fill:#767a7a;}</style></defs><g id="Capa_2" data-name="Capa 2"><g id="Capa_1-2" data-name="Capa 1"><path class="cls-1" d="M73,511.25a39,39,0,0,1-14.39-7.35,37.37,37.37,0,0,1-14.09-28.79c-.83-29.52,3-58.3,14.14-85.88,12.65-31.46,31.8-58.18,58-79.74,8-6.59,16.21-13,24.26-19.56a188.41,188.41,0,0,0,21.37-20.63,121.41,121.41,0,0,0,22.51-37.6,149.46,149.46,0,0,0,9.92-61.5,8.29,8.29,0,0,0-.19-1.39c0-.08-.28-.15-.44-.16s-.36,0-.41.11c-.6,1.11-1.18,2.23-1.77,3.34-8,15.09-20.5,24.28-37.35,27.08a43.37,43.37,0,0,1-21.34-1.42c-7.89-2.7-15.6-2.29-23.44.47a71.67,71.67,0,0,0-38.11,30.55A8,8,0,0,1,65.82,233C45,236.42,30.23,222.65,26.67,208.41c-2.73-10.92-.72-20.92,6.25-29.8,7.3-9.3,14.73-18.51,22.1-27.76q31.68-39.73,63.35-79.5a55,55,0,0,1,7.51-8c5.4-4.56,11.5-7.41,18.66-7.74,2.11-.1,2.16-.16,2.73-2.46a81.87,81.87,0,0,1,5.48-15.8A74.63,74.63,0,0,1,185.26,3.19c1.12-.61,2.31-1.08,3.45-1.66,3.26-1.67,6.74.86,7,4.08.13,1.43.11,2.88.11,4.31q0,18.95,0,37.89V52.7c3.53.67,6.81,1.27,10.08,1.92A229.92,229.92,0,0,1,234.19,62a162.62,162.62,0,0,1,49.09,26.45c29.31,23,49.54,52.21,59.87,88.06,5.9,20.48,7.48,41.4,5.67,62.64a207.25,207.25,0,0,1-8.1,41.76q-4.65,15.61-8,31.55c-.94,4.53-1.67,9.11-2.53,13.65a16.7,16.7,0,0,1-.75,2.23c-2.19,5.14-3.55,10.58-5.56,15.8a278.9,278.9,0,0,1-48,81.28,237.08,237.08,0,0,1-65.15,53.5c-27,15.11-55.87,24.33-86.2,29.27-12.42,2-24.95,3.87-37.61,3.25-3.8-.18-7,2-10.77,1.59A6.87,6.87,0,0,1,73,511.25Z"/><path class="cls-1" d="M284.14,541.94c3.25,3.51,6.44,7.08,9.77,10.52A202.19,202.19,0,0,0,338.41,587c3.73,2.15,7.43,4.35,11.08,6.63a50.33,50.33,0,0,1,9.71,7.75c6.83,7.09,9.32,15.59,7.4,25.12-1.82,9-7.33,15.41-15.87,19-1.16.49-2.42.78-3.61,1.21-.85.3-.57,1-.45,1.58a4.35,4.35,0,0,1-3.55,1.07c-46.32-1-92.65-.28-139-.39-55.27-.14-110.55,0-165.83,0-4,0-8,0-12,.23-2.16,0-3.28-2.11-5.18-2.68-9.94-2.36-16.24-8.7-19-18.28s-.52-18.33,6.07-25.88a45.72,45.72,0,0,1,9.89-8.29c3.22-2.08,6.49-4.08,9.82-6A201.36,201.36,0,0,0,82,544.2c.73-.84,1.54-1.61,2.31-2.41,1.8-1.34,3.91-1.23,6-1.23q94,0,188,0C280.29,540.57,282.45,540.31,284.14,541.94Z"/><path class="cls-1" d="M75.67,512.06c1.12.1,2.49.49,3.26-.26,1.87-1.83,4.09-1.52,6.29-1.53,3.2,0,6.4,0,9.59,0,1.92,0,3.84.14,5.68-.65a4,4,0,0,1,1.88-.27c4.34.45,8.6-.48,12.81-1.14,5.16-.81,10.35-1.5,15.51-2.44a269.9,269.9,0,0,0,39.25-10.05,191.57,191.57,0,0,0,20.89-8.25c3.59-1.72,7.32-3.17,10.85-5,12.28-6.48,24.18-13.52,35.18-22.07,6.3-4.89,12.63-9.69,18.2-15.42,1.78-1.83,4.17-2.91,5.86-4.89,5.05-5.95,10.51-11.52,15.63-17.4,8.83-10.14,16-21.43,23.5-32.48,1.52-2.23,2.64-4.73,4-7.07,3.13-5.37,6.18-10.82,8.77-16.47,5.44-11.87,10.77-23.81,14.61-36.34.28-.91.6-1.81.92-2.71.17-.51.45-.76.84-.2a3.39,3.39,0,0,1,.27.92c.12,3.38-.85,6.63-1.36,9.92-2,12.92-3.58,25.89-4.77,38.91a625.26,625.26,0,0,0-2.44,72.16c.2,8,.67,15.93,1.2,23.89a34.5,34.5,0,0,1-3.86,18.47,36.34,36.34,0,0,1-22.47,18.77c-1.15.43-2.1,1.39-3.45,1.26-.35.08-.75-.15-1.08.16a3.24,3.24,0,0,1,1.24-.13c.81,0,1.67-.29,2.4.32a6.25,6.25,0,0,1,3.66,2.12,6.84,6.84,0,0,1,.69,8.79,7.34,7.34,0,0,1-.59.76l-14.48,17.23c-1.33.85-2.81.47-4.21.47q-95.94,0-191.88,0a8.65,8.65,0,0,1-3.78-.32C79.6,535.5,75,529.89,70.2,524.36c-1.76-2.06-2.73-4.23-2.11-7A6.84,6.84,0,0,1,73,512.12,2.46,2.46,0,0,1,75.67,512.06Z"/><path class="cls-1" d="M24.09,648.37a24.42,24.42,0,0,1,8-1q151.59,0,303.18,0c3,0,6.06-.26,9,.87a7,7,0,0,0,2.38,0c9.63,1.86,15.56,8,19.05,16.77a14,14,0,0,1,1.15,7c.95,2.56-.91,3-2.66,3.45a27.46,27.46,0,0,1-6.21.32H10.91c-.95,0-1.91,0-2.87,0-6.43-.2-7-.87-6.07-7.48S6.4,657,11.3,653.05a20.83,20.83,0,0,1,10.59-4.87A1.71,1.71,0,0,1,24.09,648.37Z"/><path class="cls-2" d="M2,668.36c.38,6-.92,5.92,6.1,5.92H360.9l3.84,0c1.4,0,1.87-1,2.13-2.16a15.61,15.61,0,0,1,.39,2.32q0,11.51,0,23c0,2.8-.08,2.83-3,2.89-1,0-1.92,0-2.87,0q-177.18,0-354.36,0c-6.86,0-5.82.9-5.88-5.75-.06-6.87,0-13.74,0-20.61C1.11,672.05.79,670.08,2,668.36Z"/><path class="cls-3" d="M84.29,541.09c2.23-.05,4.47-.13,6.7-.13H277l7.19,0c0,.34,0,.67,0,1l-182.12,0c-5.91,0-11.82-.08-17.73-.12A1.38,1.38,0,0,1,84.29,541.09Z"/><path class="cls-4" d="M24.09,648.37l-2.2-.19-.72-1.66a17.5,17.5,0,0,1,1.77-.1C24.44,646.52,24.44,646.54,24.09,648.37Z"/><path class="cls-5" d="M294.88,512l-2.9,0c-.37-.16-.49-.33-.37-.49a.48.48,0,0,1,.37-.24c1.34,0,2.38-1.23,3.79-.91C295.48,511,295.18,511.49,294.88,512Z"/><path class="cls-6" d="M75.67,512.06l-2.66.06a.87.87,0,0,0,0-.87A2.49,2.49,0,0,1,75.67,512.06Z"/><path class="cls-7" d="M68.25,143.84c-.17,2.16-1.36,3.93-2.41,5.68A132.77,132.77,0,0,0,58,166.35a119.08,119.08,0,0,0-6.88,23.29C49.9,195.7,49,201.82,48.23,208a87.18,87.18,0,0,0-.13,9.57c0,1.43,0,2.87-.07,4.31-.06,1.16-.91,1.49-2,.85-4.14-2.36-7-5.92-9.51-9.87-3.85-6-4.43-12.61-3.58-19.34a22.61,22.61,0,0,1,3.61-9.78c2.94-4.36,6.38-8.32,9.62-12.45s6.52-8.21,9.77-12.32c3.85-4.85,7.69-9.72,11.54-14.56a3.26,3.26,0,0,1,.81-.5Z"/><path class="cls-8" d="M194.39,8.41a2.87,2.87,0,0,1,.54,2.46q0,18.93,0,37.86c0,1.11,0,2.23-.13,3.34a1.68,1.68,0,0,1-1.58,1.52,9.86,9.86,0,0,1-1.44.09H172.61a4.14,4.14,0,0,1-1.41-.17,1.25,1.25,0,0,1-1-1.45,25.55,25.55,0,0,1,1.68-4.95c2.42-4.66,5-9.25,7.55-13.84,1.94-3.48,3.94-6.92,5.95-10.35q3.74-6.39,7.55-12.74A16.45,16.45,0,0,1,194.39,8.41Z"/><path class="cls-9" d="M68.27,143.86c.07-.13.17-.39.21-.38.32.07.24.22-.23.36Z"/><path class="cls-10" d="M292,511.33a1.8,1.8,0,0,0,0,.73c-.3,0-.6,0-.9,0-.13,0-.25-.15-.37-.22.12-.18.21-.47.38-.52A2.94,2.94,0,0,1,292,511.33Z"/></g></g></svg>