<?xml version="1.0" encoding="UTF-8"?>
<svg id="Capa_2" data-name="Capa 2" xmlns="http://www.w3.org/2000/svg" viewBox="0 0 305.22 547.04">
  <defs>
    <style>
      .cls-1, .cls-2 {
        stroke-width: 0px;
      }

      .cls-2 {
        fill: #fcfbfa;
      }
    </style>
  </defs>
  <g id="Capa_1-2" data-name="Capa 1">
    <g>
      <path class="cls-1" d="m23.26,546.04c-12.27,0-22.26-9.99-22.26-22.26v-35.86c0-12.27,9.99-22.26,22.26-22.26h16.48v-18.41c0-9.31,6.95-17.37,16.17-18.73l.85-.13v-14.55c0-8.52,5.72-16.11,13.9-18.47l.66-.19,16.98-197.29-.45-.33c-27.92-20.44-44.59-53.27-44.59-87.81C43.26,49.79,92.05,1,152.02,1s108.76,48.79,108.76,108.76c0,34.49-16.63,67.29-44.48,87.73l-.45.33,17.67,197.59.62.21c7.86,2.63,13.14,9.95,13.14,18.23v14.55l.85.13c9.22,1.36,16.17,9.41,16.17,18.73v18.41h17.65c12.27,0,22.26,9.99,22.26,22.26v35.86c0,12.27-9.99,22.26-22.26,22.26H23.26Z"/>
      <path class="cls-2" d="m152.02,2c28.78,0,55.85,11.21,76.2,31.56,20.35,20.35,31.56,47.41,31.56,76.2,0,17.45-4.04,34.1-12.01,49.49-7.61,14.68-18.69,27.63-32.06,37.44l-.91.67.1,1.12,8.56,95.72,9,100.66.12,1.3,1.24.41c7.45,2.49,12.46,9.44,12.46,17.28v15.42l1.71.25c8.73,1.29,15.31,8.92,15.31,17.74v19.41h18.65c11.72,0,21.26,9.54,21.26,21.26v35.86c0,11.72-9.54,21.26-21.26,21.26H23.26c-11.72,0-21.26-9.54-21.26-21.26v-35.86c0-11.72,9.54-21.26,21.26-21.26h17.48v-19.41c0-8.82,6.58-16.45,15.31-17.74l1.71-.25v-15.42c0-8.07,5.42-15.27,13.18-17.51l1.32-.38.12-1.37,16.87-196.04.1-1.12-.91-.66c-13.4-9.81-24.51-22.76-32.14-37.46-7.99-15.4-12.05-32.07-12.05-49.55,0-28.78,11.21-55.85,31.56-76.2C96.18,13.21,123.24,2,152.02,2m0-2C91.4,0,42.26,49.14,42.26,109.76c0,36.4,17.72,68.65,45,88.62-5.62,65.35-11.25,130.7-16.87,196.04-8.44,2.43-14.63,10.2-14.63,19.43v13.69c-9.63,1.42-17.02,9.7-17.02,19.72v17.41h-15.48c-12.85,0-23.26,10.41-23.26,23.26v35.86c0,12.85,10.41,23.26,23.26,23.26h258.7c12.85,0,23.26-10.41,23.26-23.26v-35.86c0-12.85-10.41-23.26-23.26-23.26h-16.65v-17.41c0-10.02-7.4-18.29-17.02-19.72v-13.69c0-8.93-5.79-16.5-13.82-19.18-5.85-65.46-11.71-130.92-17.56-196.38,27.21-19.98,44.88-52.19,44.88-88.54C261.78,49.14,212.64,0,152.02,0h0Z"/>
    </g>
  </g>
</svg>