<svg xmlns="http://www.w3.org/2000/svg" viewBox="0 0 289.04 799.25"><defs><style>.cls-1{fill:#ffea97;}.cls-1,.cls-2,.cls-3,.cls-4,.cls-5,.cls-6,.cls-7,.cls-8,.cls-9{stroke:#1d1d1b;stroke-miterlimit:10;stroke-width:2px;}.cls-2{fill:#f5ce46;}.cls-3{fill:#f5cf46;}.cls-4{fill:#f0d476;}.cls-5{fill:#f0d477;}.cls-6{fill:#f1d579;}.cls-7{fill:#ffeeac;}.cls-8{fill:#fffcf4;}.cls-9{fill:#fdefc8;}</style></defs><g id="Capa_2" data-name="Capa 2"><g id="Capa_1-2" data-name="Capa 1"><path class="cls-1" d="M175.89,169.4a5.34,5.34,0,0,0,3.59,1c2.08,0,4.15,0,6.23,0a3.2,3.2,0,0,1,2.6.95c-19.23,13.16-40.67,19-59.89,18.81,5.15-.26,14.18-1.1,23.28-1,9.43.13,18.86,0,28.29.06,2.18,0,4.53-.41,6.34,1.41a2.92,2.92,0,0,0,2.13.88,185.66,185.66,0,0,1,21.6,3.71c2,.47,4,1,6,1.61,9.16,3,15.11,9.3,18.15,18.25a27.1,27.1,0,0,1,0,17.39c-3.22,9.83-6.67,19.59-10.07,29.37-1,2.83-1.52,5.84-3.12,8.44-.3.15-.43.33-.4.56s.1.37.18.37a2.17,2.17,0,0,1-.77,2.07,141.39,141.39,0,0,1-17.39,27.21C185,322.37,163,338.3,137.27,349.21a226.92,226.92,0,0,1-24,8.32c-5,1.49-10.11,1.15-15.18,1.59a1.63,1.63,0,0,1-1.25-.63c.68-2.18-.42-4.09-1.07-6-5.23-15.41-10.55-30.8-15.8-46.21q-8.82-25.83-17.58-51.68c-2.48-7.25-5.25-14.4-7.48-21.73-3.22-10.57-1.24-20.28,6.23-28.53a29,29,0,0,1,15.71-8.64c5.29-1.15,10.62-2.17,16-3,3-.47,5.92-1.31,8.93-1.17.35-1.21-.5-1.45-1.13-1.88a12.82,12.82,0,0,1-4.82-5.75c-2.55-6.09,3.22-13.61,9-13.43,1.92.06,3.84-.1,5.76,0s2.94-.89,3.49-2.58q1.1-3.42,2.21-6.84,5.47-16.85,11-33.68c.29-.91.59-1.82.87-2.74.17-.59.53-1.25-.2-1.7a2.08,2.08,0,0,0-1.82,0L116,126c-6.72,2-13.44,4-20.17,6-1,.3-2.06.95-3.19.48-.7-1.06-.5-2.21-.5-3.31q0-19.9,0-39.8a27.43,27.43,0,0,1,.12-2.87,1.36,1.36,0,0,1,1.65-1.3,18.91,18.91,0,0,1,2.77.66q14,4.14,28,8.28a11.72,11.72,0,0,0,2.32.5c.69.06,1.28-.3,1.08-1.12-.51-2-1-4-1.65-6-4-12.13-8.06-24.23-12-36.37-1.18-3.61-2-3.65,2.37-5.75,8.51-4,17-8.13,25.47-12.19.3-1.14-.93-1.1-1.22-1.74a6.75,6.75,0,0,1,7.05,0l-1.78,1.19,29.65,14.21a8.81,8.81,0,0,1-.77,4q-6.33,19.35-12.64,38.7c-.25.76-.47,1.53-.72,2.29s-.64,1.54-.06,2.25,1.45.41,2.21.18L181.83,89q5.5-1.65,11-3.28a11.69,11.69,0,0,1,2.32-.49,1.38,1.38,0,0,1,1.62,1.34,17.33,17.33,0,0,1,.11,1.91q0,20.88,0,41.75a3.08,3.08,0,0,1-.59,2.31c-1.26.4-2.44-.31-3.62-.65-9.5-2.79-19-5.65-28.46-8.45-.84-.24-1.82-1.08-2.6-.06-.53.69,0,1.51.19,2.27q3.41,10.49,6.75,21c.58,1.82,1.49,3.55,1.5,5.53-.5,1.79-2.11,2.26-3.52,3-11.15,5.69-22.94,9.71-34.86,13.39-3.68,1.14-7.51,1.18-11.31,1.47C138.87,168.59,157.38,169.06,175.89,169.4Z"/><path class="cls-1" d="M191.23,430.77c-.85,4.38-1.77,8.74-2.51,13.13-1,5.81-1.79,11.64-2.66,17.46-.95,6.35-.69,12.72-1.39,19.07a58.27,58.27,0,0,0,.34,17.18,13.6,13.6,0,0,1,.18,2.39c.08,6.54,1.17,13,1.85,19.49,1.31,12.69,3.6,25.21,6.06,37.7,2.31,11.72,5.19,23.33,8.46,34.82,1.61,5.68,3.19,11.37,5.06,17,4.31,12.85,8.88,25.62,14.38,38,.52,1.17,1.16,2.27,1.75,3.41-1.79,1.78-4.12,1.55-6.32,1.55q-71.91.06-143.81,0c-2.2,0-4.53.23-6.33-1.55,3.11-5.43,5.18-11.33,7.48-17.11,3.07-7.71,6.11-15.46,8.64-23.36,5.4-16.86,10.42-33.83,13.86-51.24,1.88-9.53,3.76-19.07,5.31-28.66,1-6.29,1.16-12.72,2.32-19,1.09-5.87.58-11.78,1.42-17.65a37.85,37.85,0,0,0-.23-12.42,23,23,0,0,1-.27-3.81c-.14-14.58-2.46-28.88-5.57-43.08-.24-1.09-.33-2.21-.5-3.31,1.69-2,4-1.72,6.23-1.72q40-.09,80,0C187.17,429.08,189.52,428.83,191.23,430.77Z"/><path class="cls-1" d="M15.4,757.88l1.32-1.49c-1.24-.52-2.37-1-3.49-1.48-11.19-5-16-19.25-8.62-30.8,2.31-3.61,5.53-6.16,9-8.47s7.23-4.69,11-6.81a149.82,149.82,0,0,0,25.17-18.15,112.5,112.5,0,0,0,8.76-8.14c2.69-2.93,5.19-6,7.77-9,1.78-1.81,4.11-1.58,6.32-1.59q72-.06,143.91,0c2.2,0,4.53-.22,6.31,1.59a123.08,123.08,0,0,0,15.8,16.57,175.89,175.89,0,0,0,21,15.84c3.1,2,6.3,3.75,9.48,5.58a73.45,73.45,0,0,1,11,7.59,21,21,0,0,1,7.85,15.82c.2,8.65-3.37,15.43-11.23,19.58-1.36.72-2.81,1.27-4.32,1.94l1.3,1.47c-1,1-2.3.94-3.59.92-55.74-.65-111.48-.19-167.21-.25-27.95,0-55.9-.39-83.85.25C17.71,758.83,16.42,758.87,15.4,757.88Z"/><path class="cls-1" d="M287.83,777c.05,6.24.13,12.47.12,18.7,0,2.06-.47,2.42-2.63,2.51-1.28,0-2.56,0-3.84,0H7.56c-7.14,0-6.5.71-6.5-6.36,0-5,.1-9.9.15-14.86,2.81-2.22,6.13-1.44,9.25-1.44q120.87-.08,241.74,0c9.59,0,19.18,0,28.78,0C283.34,775.57,285.82,775.22,287.83,777Z"/><path class="cls-2" d="M287.83,777c-1.92,0-3.83.14-5.75.14H7c-1.92,0-3.83-.09-5.75-.14a2,2,0,0,1-.05-.84c.8-1.21-.07-2.72.75-3.93A19.7,19.7,0,0,1,15.4,757.88c5.66-1.29,11.41-.94,17.13-.94q112,0,224,0c5.73,0,11.47-.35,17.13.94,7,2.4,11.59,7.14,13.5,14.36.81,1.21-.05,2.73.74,3.94A1.94,1.94,0,0,1,287.83,777Z"/><path class="cls-2" d="M191.23,430.77c-1.6-.06-3.19-.17-4.79-.18q-41.44,0-82.9,0c-1.6,0-3.19.13-4.79.2-3.65-.09-7.3-.2-11-.24-3.81-.05-7.64-.14-11.45,0-7.77.31-14.81-6-15-13.52-.25-8.47,4.82-14.37,13.5-15.37a15.19,15.19,0,0,1,7.43-1.44q59.84,0,119.69,0c4.16,0,8.14,1.31,12.26,1.46,8.35.94,12.87,6.36,12.71,14.91a14.23,14.23,0,0,1-13.71,13.88c-5.41.23-10.83,0-16.25.07C195,430.57,193.13,430.7,191.23,430.77Z"/><path class="cls-3" d="M222.79,673.49H66.25q-5.47-6.65-11-13.28a6.37,6.37,0,0,1-1.6-2.88,5.54,5.54,0,0,1,4.94-6.83c2.54-.22,5.1-.07,7.65-.09,2.07,0,4.15.06,6.22.06H219.4c1.12,0,2.24,0,3.35-.06,1.91,0,3.83.08,5.74,0,2.77-.13,5.17.58,6.41,3.2s.42,4.84-1.45,7C229.81,664.81,226.34,669.18,222.79,673.49Z"/><path class="cls-1" d="M214.2,401.7c-3.18.47-6.38.11-9.56.11q-63.72,0-127.44.05c-.79,0-1.59-.11-2.38-.18.35-.51.88-1,.48-1.68A8.5,8.5,0,0,0,74,398.62c-3.38-3.3-3.9-7.31-2.19-11.43s5.24-6.28,9.81-6.38c2.7-.06,5.41,0,8.12,0,2.23,0,4.47,0,6.7-.07a2.18,2.18,0,0,0,2.3-2c.34-2.83,1.42-5.58,1.08-8.5,1.75-1.85,4.09-1.6,6.28-1.61q38.82-.08,77.62,0c2.2,0,4.52-.23,6.34,1.5,0,2.53-.18,5.08.48,7.57.75,2.85,1,3,3.84,3.1,2.06.05,4.13,0,6.19,0h2.85a9.92,9.92,0,0,1,9.68,6.35c1.87,4.16.74,7.72-1.78,11.08a22.71,22.71,0,0,1-2.29,2.32C210.76,401.54,212.74,400.41,214.2,401.7Z"/><path class="cls-4" d="M98,358.61c1-1.18,2.3-1,3.54-.9,5,.36,9.72-1,14.5-2.28,14-3.71,26.94-9.73,39.55-16.54a153.66,153.66,0,0,0,21.34-14.34c4.15-3.25,7.37-7.52,11.91-10.26a1.34,1.34,0,0,0,.35-.32c3.89-4.41,7.87-8.74,11.64-13.24,2.85-3.4,5.59-6.93,8.11-10.58a120.89,120.89,0,0,0,9.76-16.39c.29-.62.63-1.15,1.35-.41-1.35,4.24-2.63,8.51-4,12.74-3.27,9.66-6.61,19.3-9.92,29q-6.43,18.76-12.85,37.55c-.66,1.93-1.67,3.85-1.13,6-1.22,2.5-3.6,2.46-5.79,2.47q-40.68.15-81.35,0C102.38,361.05,99.76,360.88,98,358.61Z"/><path class="cls-3" d="M98,358.61c4.68,1.23,9.47,1,14.24,1H186c2.07,0,4.18.25,6.05-1a5.2,5.2,0,0,1,3.6,3.45,5.8,5.8,0,0,1-2.51,7,17.46,17.46,0,0,1-3.1,1.08h-85c-1.75,0-3.49.07-5.24.1a23,23,0,0,1-2.77-.56A5.57,5.57,0,0,1,92.86,365a5.63,5.63,0,0,1,2.7-6,6.51,6.51,0,0,1,1.32-.49Z"/><path class="cls-5" d="M186.33,190.7H123c.51-1.33,1.37-.95,2-.95,5.1,0,10.08-1,15.11-1.7A132.05,132.05,0,0,0,155,185a88.23,88.23,0,0,0,28-12,9,9,0,0,1,5.34-1.62c2.8,1.29,4.17,3.65,5.08,6.47a9.6,9.6,0,0,1-.77,7.35C191.34,187.89,189,189.52,186.33,190.7Z"/><path class="cls-5" d="M175.89,169.4a5.15,5.15,0,0,1-1.57,1,14.43,14.43,0,0,1-2.87.14H119.22l-.08-.52c1.89-.46,3.77-1,5.69-1.33a48.16,48.16,0,0,0,7.41-1.78c11.25-3.58,22.45-7.28,33-12.69,1.56-.79,3.22-1.38,4.83-2.07l0,.06c.23.36.47.71.72,1.06Z"/><path class="cls-1" d="M132.3,25.61l-.79-.92c.56-3.38-.57-6.75,0-10.14,2.7-8.38,7.34-11.59,15.81-11a30.38,30.38,0,0,1,8.47,3.93c1.43,10.17-2.8,17.31-12,20.35C139.5,29.24,135.67,28.66,132.3,25.61Z"/><path class="cls-6" d="M132.3,25.61c2,.57,3.91,1.2,5.89,1.7a5.2,5.2,0,0,0,2.35.1c5.75-1.35,10.72-3.78,13.19-9.65a8.87,8.87,0,0,0,.89-3.64,13.56,13.56,0,0,1,.65-5.61c.1-.26-.4-.77-.63-1.16a2.3,2.3,0,0,1-1.56-1.93,1.88,1.88,0,0,1,.56-1.14,14,14,0,0,1,6,8.83,15.11,15.11,0,0,1-11.59,18.37H141C137.23,30.81,134.12,29.17,132.3,25.61Z"/><path class="cls-7" d="M153.64,4.28l-.1,1.21c-1.85,1.18-2.85-1.18-4.44-1.07-9.94-2.68-18.46,4.1-17.73,14,0-1.26-1.27-2.87,1.13-3.4.23,2.36-.5,4.84.69,7.08,1.06,2-1,1.83-1.68,2.61-4.17-6.52-3.45-13.07,1.64-18.66a15,15,0,0,1,10.93-5C147.41.91,151.07,1.41,153.64,4.28Z"/><path class="cls-1" d="M1.91,772.24c.1,1.38.36,2.78-.75,3.93C.92,774.77.79,773.39,1.91,772.24Z"/><path class="cls-1" d="M287.88,776.18c-1.11-1.15-.85-2.56-.74-3.94C288.25,773.39,288.11,774.77,287.88,776.18Z"/><path class="cls-1" d="M170.76,153.24l-.72-1.06A1,1,0,0,1,170.76,153.24Z"/><path class="cls-4" d="M220.78,271.28c-.73-.5-.38-.74.21-.93A3.69,3.69,0,0,1,220.78,271.28Z"/><path class="cls-8" d="M73.05,407.63a29.46,29.46,0,0,0-1.91,2.71c-2.09,3.83-2.61,7.77-.58,11.82.43.85.88,1.69,1.23,2.56.08.19-.15.54-.3.79,0,.06-.31,0-.44,0a10.57,10.57,0,0,1-5.26-11.64c.94-3.32,2.64-6.11,6.12-7.37C73,406.2,73.25,406.67,73.05,407.63Z"/><path class="cls-9" d="M73.05,407.63l-1.14-1.17a4.21,4.21,0,0,1,1.18-.72,3.78,3.78,0,0,1,1.34.21,6.47,6.47,0,0,1-.58,1.18C73.68,407.37,73.33,407.47,73.05,407.63Z"/></g></g></svg>