<svg xmlns="http://www.w3.org/2000/svg" viewBox="0 0 289 799.25"><defs><style>.cls-1{stroke:#fff;stroke-miterlimit:10;stroke-width:2px;}</style></defs><g id="Capa_2" data-name="Capa 2"><g id="Capa_1-2" data-name="Capa 1"><path class="cls-1" d="M175.85,169.4a5.34,5.34,0,0,0,3.59,1c2.07,0,4.15,0,6.22,0a3.23,3.23,0,0,1,2.61.95c-19.23,13.16-40.67,19-59.89,18.81,5.15-.26,14.18-1.1,23.27-1,9.43.13,18.86,0,28.29.06,2.19,0,4.53-.41,6.34,1.41a2.94,2.94,0,0,0,2.14.88A185.86,185.86,0,0,1,210,195.29c2,.47,4,1,6,1.61,9.15,3,15.11,9.3,18.15,18.25a27.1,27.1,0,0,1,0,17.39c-3.22,9.83-6.66,19.59-10.06,29.37-1,2.83-1.52,5.84-3.13,8.44-.3.15-.43.33-.39.56s.09.37.17.37a2.14,2.14,0,0,1-.76,2.07,141.87,141.87,0,0,1-17.39,27.21c-17.64,21.81-39.62,37.74-65.35,48.65a226.92,226.92,0,0,1-24,8.32c-5,1.49-10.12,1.15-15.18,1.59a1.62,1.62,0,0,1-1.25-.63c.67-2.18-.42-4.09-1.07-6-5.24-15.41-10.55-30.8-15.81-46.21q-8.8-25.83-17.58-51.68c-2.47-7.25-5.24-14.4-7.47-21.73-3.22-10.57-1.25-20.28,6.23-28.53a29,29,0,0,1,15.71-8.64c5.29-1.15,10.62-2.17,16-3,3-.47,5.92-1.31,8.94-1.17.35-1.21-.5-1.45-1.14-1.88a12.8,12.8,0,0,1-4.81-5.75c-2.55-6.09,3.22-13.61,9-13.43,1.92.06,3.84-.1,5.75,0s2.94-.89,3.49-2.58c.74-2.28,1.47-4.56,2.22-6.84q5.48-16.85,11-33.68c.3-.91.6-1.82.87-2.74.18-.59.54-1.25-.19-1.7a2.1,2.1,0,0,0-1.83,0L116,126c-6.72,2-13.44,4-20.18,6-1,.3-2.06.95-3.19.48-.7-1.06-.49-2.21-.49-3.31q0-19.9,0-39.8c0-1,0-1.92.13-2.87a1.36,1.36,0,0,1,1.64-1.3,19.35,19.35,0,0,1,2.78.66q14,4.14,28,8.28a11.57,11.57,0,0,0,2.32.5c.68.06,1.28-.3,1.07-1.12-.5-2-1-4-1.65-6-4-12.13-8.06-24.23-12-36.37-1.18-3.61-2-3.65,2.36-5.75,8.52-4,17-8.13,25.48-12.19.29-1.14-.94-1.1-1.23-1.74a6.77,6.77,0,0,1,7.06,0l-1.79,1.19,29.65,14.21a8.81,8.81,0,0,1-.76,4q-6.33,19.35-12.65,38.7c-.24.76-.47,1.53-.72,2.29s-.63,1.54-.05,2.25,1.44.41,2.2.18L181.79,89q5.51-1.65,11-3.28a11.64,11.64,0,0,1,2.33-.49,1.38,1.38,0,0,1,1.62,1.34,17.33,17.33,0,0,1,.11,1.91V130.2a3.17,3.17,0,0,1-.59,2.31c-1.27.4-2.44-.31-3.63-.65-9.49-2.79-19-5.65-28.46-8.45-.83-.24-1.81-1.08-2.6-.06-.52.69,0,1.51.2,2.27,2.26,7,4.53,14,6.75,21,.57,1.82,1.48,3.55,1.49,5.53-.49,1.79-2.1,2.26-3.51,3-11.15,5.69-22.95,9.71-34.86,13.39-3.69,1.14-7.52,1.18-11.32,1.47C138.82,168.59,157.34,169.06,175.85,169.4Z"/><path class="cls-1" d="M191.18,430.77c-.84,4.38-1.76,8.74-2.5,13.13-1,5.81-1.79,11.64-2.66,17.46-1,6.35-.69,12.72-1.39,19.07a58.27,58.27,0,0,0,.34,17.18,14.63,14.63,0,0,1,.18,2.39c.08,6.54,1.17,13,1.84,19.49,1.32,12.69,3.6,25.21,6.06,37.7,2.32,11.72,5.19,23.33,8.46,34.82,1.62,5.68,3.19,11.37,5.07,17,4.31,12.85,8.88,25.62,14.38,38,.51,1.17,1.16,2.27,1.75,3.41-1.8,1.78-4.13,1.55-6.33,1.55q-71.9.06-143.81,0c-2.2,0-4.53.23-6.32-1.55,3.11-5.43,5.18-11.33,7.48-17.11,3.07-7.71,6.1-15.46,8.63-23.36,5.41-16.86,10.42-33.83,13.86-51.24,1.88-9.53,3.77-19.07,5.32-28.66,1-6.29,1.15-12.72,2.31-19,1.09-5.87.58-11.78,1.43-17.65a38.12,38.12,0,0,0-.23-12.42,22,22,0,0,1-.27-3.81c-.15-14.58-2.46-28.88-5.58-43.08-.23-1.09-.33-2.21-.49-3.31,1.69-2,4-1.72,6.23-1.72q40-.09,80,0C187.13,429.08,189.48,428.83,191.18,430.77Z"/><path class="cls-1" d="M15.36,757.88l1.31-1.49c-1.23-.52-2.37-1-3.48-1.48-11.19-5-16-19.25-8.63-30.8a29.84,29.84,0,0,1,9-8.47c3.57-2.4,7.23-4.69,11-6.81a150.63,150.63,0,0,0,25.17-18.15,114.2,114.2,0,0,0,8.75-8.14c2.69-2.93,5.19-6,7.78-9,1.78-1.81,4.11-1.58,6.31-1.59q72-.06,143.91,0c2.21,0,4.54-.22,6.32,1.59a123.08,123.08,0,0,0,15.8,16.57A175.78,175.78,0,0,0,259.5,705.9c3.1,2,6.31,3.75,9.48,5.58a74.05,74.05,0,0,1,11,7.59,21,21,0,0,1,7.85,15.82c.19,8.65-3.38,15.43-11.24,19.58-1.36.72-2.8,1.27-4.31,1.94l1.3,1.47c-1,1-2.31.94-3.6.92-55.73-.65-111.47-.19-167.21-.25-27.94,0-55.89-.39-83.84.25C17.66,758.83,16.38,758.87,15.36,757.88Z"/><path class="cls-1" d="M287.79,777c0,6.24.12,12.47.11,18.7,0,2.06-.47,2.42-2.62,2.51-1.28,0-2.56,0-3.84,0H7.51c-7.13,0-6.5.71-6.49-6.36,0-5,.09-9.9.15-14.86,2.81-2.22,6.13-1.44,9.25-1.44q120.87-.08,241.73,0c9.6,0,19.19,0,28.78,0C283.29,775.57,285.78,775.22,287.79,777Z"/><path class="cls-1" d="M287.79,777c-1.92,0-3.84.14-5.75.14H6.91c-1.91,0-3.83-.09-5.74-.14a1.83,1.83,0,0,1,0-.84c.79-1.21-.07-2.72.74-3.93,1.91-7.22,6.46-12,13.5-14.36,5.65-1.29,11.4-.94,17.13-.94q112,0,224,0c5.73,0,11.48-.35,17.14.94,7,2.4,11.59,7.14,13.49,14.36.81,1.21,0,2.73.74,3.94A1.94,1.94,0,0,1,287.79,777Z"/><path class="cls-1" d="M191.18,430.77c-1.59-.06-3.19-.17-4.78-.18q-41.46,0-82.91,0c-1.59,0-3.19.13-4.78.2-3.65-.09-7.3-.2-10.95-.24-3.82-.05-7.64-.14-11.45,0-7.78.31-14.82-6-15-13.52-.25-8.47,4.83-14.37,13.51-15.37a15.13,15.13,0,0,1,7.42-1.44q59.85,0,119.7,0c4.15,0,8.13,1.31,12.26,1.46,8.35.94,12.86,6.36,12.71,14.91a14.24,14.24,0,0,1-13.71,13.88c-5.41.23-10.84,0-16.26.07C195,430.57,193.09,430.7,191.18,430.77Z"/><path class="cls-1" d="M222.75,673.49H66.21L55.26,660.21a6.48,6.48,0,0,1-1.61-2.88,5.56,5.56,0,0,1,5-6.83c2.53-.22,5.1-.07,7.65-.09,2.07,0,4.14.06,6.22.06H219.36c1.12,0,2.23,0,3.35-.06,1.91,0,3.83.08,5.73,0,2.77-.13,5.18.58,6.42,3.2s.41,4.84-1.45,7C229.76,664.81,226.29,669.18,222.75,673.49Z"/><path class="cls-1" d="M214.16,401.7c-3.19.47-6.38.11-9.57.11q-63.72,0-127.43.05c-.8,0-1.59-.11-2.38-.18.35-.51.88-1,.47-1.68a8.43,8.43,0,0,0-1.3-1.38c-3.39-3.3-3.9-7.31-2.2-11.43s5.24-6.28,9.81-6.38c2.71-.06,5.42,0,8.13,0,2.23,0,4.46,0,6.69-.07a2.2,2.2,0,0,0,2.31-2c.34-2.83,1.41-5.58,1.07-8.5,1.76-1.85,4.09-1.6,6.29-1.61q38.8-.08,77.61,0c2.21,0,4.53-.23,6.35,1.5,0,2.53-.18,5.08.48,7.57.75,2.85,1,3,3.84,3.1,2.06.05,4.12,0,6.18,0h2.86a9.92,9.92,0,0,1,9.68,6.35c1.87,4.16.74,7.72-1.78,11.08a21.84,21.84,0,0,1-2.3,2.32C210.72,401.54,212.69,400.41,214.16,401.7Z"/><path class="cls-1" d="M97.91,358.61c1-1.18,2.31-1,3.54-.9,5,.36,9.72-1,14.51-2.28,14-3.71,26.93-9.73,39.55-16.54a154.25,154.25,0,0,0,21.34-14.34c4.15-3.25,7.36-7.52,11.91-10.26a1.75,1.75,0,0,0,.35-.32c3.89-4.41,7.86-8.74,11.63-13.24,2.86-3.4,5.59-6.93,8.11-10.58a120.89,120.89,0,0,0,9.76-16.39c.3-.62.64-1.15,1.36-.41-1.35,4.24-2.63,8.51-4.06,12.74-3.27,9.66-6.6,19.3-9.91,29-4.29,12.51-8.61,25-12.86,37.55-.65,1.93-1.66,3.85-1.13,6-1.21,2.5-3.59,2.46-5.78,2.47q-40.68.15-81.35,0C102.34,361.05,99.72,360.88,97.91,358.61Z"/><path class="cls-1" d="M97.91,358.61c4.69,1.23,9.48,1,14.25,1H186c2.06,0,4.18.25,6-1a5.18,5.18,0,0,1,3.6,3.45,5.81,5.81,0,0,1-2.5,7,17.74,17.74,0,0,1-3.1,1.08H105c-1.75,0-3.5.07-5.25.1a23.42,23.42,0,0,1-2.77-.56A5.57,5.57,0,0,1,92.82,365a5.63,5.63,0,0,1,2.7-6,6.3,6.3,0,0,1,1.32-.49Z"/><path class="cls-1" d="M186.28,190.7H122.92c.51-1.33,1.37-.95,2-.95,5.11,0,10.09-1,15.12-1.7A132.51,132.51,0,0,0,155,185a88.18,88.18,0,0,0,28-12,9.09,9.09,0,0,1,5.35-1.62c2.8,1.29,4.17,3.65,5.08,6.47a9.56,9.56,0,0,1-.78,7.35C191.29,187.89,189,189.52,186.28,190.7Z"/><path class="cls-1" d="M175.85,169.4a5.19,5.19,0,0,1-1.58,1,14.29,14.29,0,0,1-2.86.14H119.18l-.09-.52c1.9-.46,3.78-1,5.7-1.33a48.16,48.16,0,0,0,7.41-1.78c11.25-3.58,22.45-7.28,33-12.69,1.55-.79,3.21-1.38,4.82-2.07l0,.06c.23.36.47.71.72,1.06Q173.29,161.31,175.85,169.4Z"/><path class="cls-1" d="M132.25,25.61l-.79-.92c.56-3.38-.56-6.75,0-10.14,2.69-8.38,7.33-11.59,15.8-11a30.44,30.44,0,0,1,8.48,3.93c1.42,10.17-2.81,17.31-12,20.35C139.45,29.24,135.62,28.66,132.25,25.61Z"/><path class="cls-1" d="M132.25,25.61c2,.57,3.92,1.2,5.9,1.7a5.2,5.2,0,0,0,2.35.1c5.74-1.35,10.72-3.78,13.19-9.65a8.86,8.86,0,0,0,.88-3.64,13.73,13.73,0,0,1,.65-5.61c.11-.26-.4-.77-.62-1.16A2.3,2.3,0,0,1,153,5.42a1.88,1.88,0,0,1,.56-1.14,13.94,13.94,0,0,1,6,8.83A15.11,15.11,0,0,1,148,31.48H141C137.18,30.81,134.07,29.17,132.25,25.61Z"/><path class="cls-1" d="M153.6,4.28l-.1,1.21c-1.85,1.18-2.85-1.18-4.44-1.07-9.94-2.68-18.47,4.1-17.73,14,0-1.26-1.27-2.87,1.13-3.4.22,2.36-.5,4.84.68,7.08,1.06,2-1,1.83-1.68,2.61C127.29,18.17,128,11.62,133.1,6A15,15,0,0,1,144,1C147.36.91,151,1.41,153.6,4.28Z"/><path class="cls-1" d="M287.83,776.18c-1.1-1.15-.84-2.56-.74-3.94C288.2,773.39,288.07,774.77,287.83,776.18Z"/><path class="cls-1" d="M170.71,153.24l-.72-1.06A1,1,0,0,1,170.71,153.24Z"/><path class="cls-1" d="M220.73,271.28c-.72-.5-.37-.74.22-.93A3.32,3.32,0,0,1,220.73,271.28Z"/><path class="cls-1" d="M132.46,15c-1.41.9-.52,2.68-1.41,4-1-6.73,1.57-11.75,7.07-14.53a14.34,14.34,0,0,1,11.48-.82c.1,1.71-.83,1.39-1.83.93a22.28,22.28,0,0,0-5.22.24C137.09,6.13,133.67,9.46,132.46,15Z"/><path class="cls-1" d="M147.77,4.55c.71-.12,1.46-.14,1.83-.93,1.46.28,2.29,1.9,3.9,1.87.36.62.73,1.24,1.1,1.86-.26.11-.61.41-.78.33C151.79,6.67,149.78,5.6,147.77,4.55Z"/></g></g></svg>